<mxfile host="app.diagrams.net" modified="2024-01-17T01:08:59.404Z" agent="Mozilla/5.0 (Macintosh; Intel Mac OS X 10_15_7) AppleWebKit/605.1.15 (KHTML, like Gecko) Version/17.2.1 Safari/605.1.15" etag="pwYieiY8XxEHhhXW1NaU" version="22.1.20" type="github">
  <diagram name="Page-1" id="aR2iungKzlA5unj-N9OP">
    <mxGraphModel dx="1305" dy="936" grid="1" gridSize="14" guides="1" tooltips="1" connect="1" arrows="1" fold="1" page="1" pageScale="1" pageWidth="827" pageHeight="1169" math="0" shadow="0">
      <root>
        <mxCell id="0" />
        <mxCell id="1" parent="0" />
        <mxCell id="_1n4BincOxXQv3ALfyLK-1" value="证明持有人" style="shape=umlActor;verticalLabelPosition=bottom;verticalAlign=top;html=1;outlineConnect=0;sketch=1;curveFitting=1;jiggle=2;" vertex="1" parent="1">
          <mxGeometry x="490" y="168" width="30" height="60" as="geometry" />
        </mxCell>
        <mxCell id="_1n4BincOxXQv3ALfyLK-7" value="" style="shape=image;verticalLabelPosition=bottom;labelBackgroundColor=default;verticalAlign=top;aspect=fixed;imageAspect=0;image=data:image/png,iVBORw0KGgoAAAANSUhEUgAAAS4AAACMCAYAAADC40QSAAAAAXNSR0IArs4c6QAAAHhlWElmTU0AKgAAAAgABAEaAAUAAAABAAAAPgEbAAUAAAABAAAARgEoAAMAAAABAAIAAIdpAAQAAAABAAAATgAAAAAAAACQAAAAAQAAAJAAAAABAAOgAQADAAAAAQABAACgAgAEAAAAAQAAAS6gAwAEAAAAAQAAAIwAAAAAZarmsgAAAAlwSFlzAAAWJQAAFiUBSVIk8AAAPxpJREFUeAHtnQ1w1dWZ/39Cwku0jdaAxq4IRDFiIxKrVA1q0OK6satui91Fpzgt7hZn/zi7oTswO7BdnCnuFmYHupXdkTroiqvSrrhKW7MKqEGLCr6ggMUgxhcqohJfEAhw/9/PufekN8nv/t7uvSGBc5jLvfn9zuv3ec5zznnOc55zjOeCQ6DACDz00EPTXntt8zSyPfvssxZfd911iwtchMvuKEfgmKO8/a75BUTghRdeqHr11VenrVmzpnH9+vUm5/POO8+77LLLFnzta19b/PWvf72lgMW5rBwCDgGHQH4I/OY3v5n0d3/3d6nTTz89dfzxx6fKyo41H37zjHfEya8Ul9ohkEbAzbgcJ+SFwNNPPz3ud7/73fyXXnqp7rXXXvPeeustb//+9k55DhhQ6p122mlaNp7tnXvuuc3f+MY3ZowfP35dp0juD4dADASc4IoBlovaGYGVK1dOfuaZZxY+8sgjFe+88473+eefe4MGDfIGDBjglZSUmMgHDhyQINvv7d271zv22GO9P/mTP/G+9a1v7broootubWhouK9zju4vh0A0BJzgioaTi5WFgHRZw5qamh5atWpV7aZNm7xPP/3UvD10KCUhtc875ZRTvJNOOsk8e//997333ntPwmyg169fmt2+9KUveaNHj/YmTJiwYeLEiddJ99Walb376RAIRcAJrlCIXASLgARW2aubNs19cf36xueff94sCz/66CPv4MGDEkr9vPLycu/MM8/0UMhXV1ffTbotW7ZMQVH/+uuve21tbd6hQ4e8/v37e1/5ylfM8vH888/3xp533oKvjR49RwJsjy3LfTsEHAIOgbwR0JKwevHixUu/+c1vpoYMGZKS8Ekdd9xxRhHP99ChQ1MXX3xx6qc//enTzMhsgfzmGe+Ik52GPMiLPMmbMmw69+0QcAg4BPJCYOnSpfO///3vpzSLSmkZmDrhhBOMAJI+y/yWqUPqRz/60X50XrkK4h1xiEt60iLE+E2e5E0ZlJUrD/fcIWARcEtFi4T77obAo48+OuW5556bqx3DYb///e+9t1o7q6JOr6oyuqqxY8duGDdu3K319fXN3TLJerB69eq6devWLXzxxReNbuyNls5mXacNG+aNGjWKncfWCy64YM7VV19tlptZWbifDgGHgEMgNwIPP/zwlL/8y79MSXdlPoMHD05JL9Vhn8Xvv/3bv0099thj1+bOxf8NaUjbNT/KsOVRNnXwz8E9PdoR6FMzLulLyqUcnt3a2tpwsL297GgnXjHav2/fvnIp3MulVPeEs7dr1y5TzEEp1QnYY31dynftCC7S8m6JzBo2mhcx/5M+q0ZlTNXO5PQXpLzH/ovQX0p+QkVFhTdMMzCVgSK/beDAgW3mhfuvoAj0Ly3dI5xXanPkNm2O9BmM+4TgksAqffvtt6du2LBhto6UVLK9zu5UKpUqKBFdZp6xucIea+fOnd4B7RYeo3+EoUOHeFVaGtbW1rZrGTdr0qRJCwqB1/Llyxu1HJ0n2pa2aOm4c+cHJtuUl/JKtPsohb6x/8I2zIXCInDMMceY3WDMV6R73CHa3nbqqacukQDrbEFc2GILklufEFxLliy5Q0aO06TgNVvvAG4NHAuCgsukEwKYK2BIigX83r1fGOa+/IorvB98//szoggsDTQYpJolpAxOV6gjpKdtnUrp/AcC7Bd33TX/iccfN4PSoEGDZftVagxXMbdwoTgIYCDMBACayyAY4+DFU6dOvaU4pRUu114tuO655955q1Y9PnPr1q3eu+++62EzhBW2BbtwMBw9OdlRlhkMzNo1wMQHDx6S8DhoZjsoy3U8Z4tss24Ls3TH9OHJJ59c+vLLL9e/+eabJusRI0Z4Y8aMWX3ppZfeJAHWWbvfpXB2HmXzNVvHiKrZDGDW169ff9Wzn0e9uwYEGvzgZt9dkYn+t50EwA9akntf/epXvTPOOEOqgCtu/973bpwVPaeejdmdG3q2fN/SnnrqqVrtZM1ubm6+ds2aNTpKssc7lDrkleoYiXQd3pe//GXvxBNPdLMuX/S6P8Q4lA8d/bPPPjMDwBdffGH+tsKLzm8HBJj45JNPZnfPkw5ruXYMETqBxqHsQMooda52Doex5LO6MXRVLDG149iqpcica6655u7uNfzjEwm/Mu08YtM1STzg/eEPfzDCyXYw2kGgLdRdCn3T4WRaYf6mHXxcCEcAen/44YfeJ5984km36bXr737H9NPSvMy77LLLvLq6uhXigdsuueSSDeG59WyMXie4VqxYMVVeBO58XEuGP/zhfa+0tMR0uvb2dnMW7qyzzvKkY/GuuOKK28rKynaIoXv9erxnSdq9tFIpYCWM2sScj6J0ZzDYuHGj98EHu9TxB5nZjMWX1NJzeDfeeOOOCVdeeX19XV2giQPxly1bNveee+6ZrQGHP0WzUvPhN/nyIcgI1Zs8efIi2Wvdah4E/Le6ublu1WOPPXjvvfdWSr9pYnLWkbyZFX7xxV5vyJAKr6amxnQylPga1K7WDKxc5bmNmwBseSUMS/fs2VOpfjZbOkZv8+bNRpcIvgj+9vYDGrxOop95V1111c3XXnvtkpAse/R1rxFc//d//9cgxr9To2wlS0NGbJiTmZZQNlNYjofIs8BKeRlYIEBX9yhSfbwwzWSqNIt549lnn/X4MPNCoDCD4ZuZLLt4zLI0u1ou26zbwnYMH3zwwZnMsrIV68yMECwp6KZwjEZwe0aR2dfw4cPJHwX/nOuvv/72IFjZeZTN12zV3cy+2OVkZmA7F9/MtC688ELzUX1PV96djcOCCnDvPAmuenn1aJSHjwbR0qhkRDQz82JQg2YsHcUXOzTzulmnHFb2BtgOu+BiaSBB1ajlwVxmWYyuLGNYrvCBOdlZ0jLDk0FiJOVwbwC2N9WBpbd0RpgeTHvxxZe8lpY3DLYILUZXmBNdlJaEbdJn3RKmy5Lgq8VhoJaF7PSmTRnE7OwCQi90JSznCSxD0E3aURzdGSYV0FPLxyU627g4bCmC7kt6rzvEI+XozhjUbN3RcVVVne6NHXsuJhqLpZNbEpZfb6JNb6kLmyNa7s+HnugWGczAlg/LcWbhzL7EI3MkyBZogAhUHfSWdhWlHswCZs2atVtraXP0g+MfOJ6T94CUhFZKisKUvAek2FVU3PKiVOIIzxQ3yj/4wQ/MmUAdgk5JoBjDT4w9pSMynylTpqSIFwUKdFk//OG0jvygFYak5McxHs4jTps2LcWSnw+/eca7wWVlJi5pqAvnFP/mhz80caOUTR2pq603ZVI2bbL50daobYlS5tEUhz5GX6PP0ffog9CKPknf5ENfpc/Sdw8nNodlxqVGD9MyYKFG0Gtxi4Lrk92728zygmUGW/HosTQqt7GbpdnAIpYXhxOovlY21unCd56W3tWbN2/xtr+1vcMmCxupEVqysWN4zjnntGoUnRU2y3riiScmaimBvVUt+pBt296Ugjy9ld5PM62RmrHhqobjP1rSz7FLClQASjfXHvPZphnTISnWWVL271+imd5wD72l0m0UredceeWVK4KwZvZFu1555RVzDOnN7Z3bNfw08qtmabOFdoXlF1TW0fhOfbNUs9rp7O6K1uXov/ClBr1Y9h9/fLlxWQSthe8KLc9vVd8M3C0+InDkvJr1FiBbrBQf3PxaqS49S0o6i9SiRYseEoiVR0Sje7ARMB4zjltuuSUlwWRGTGYmduSsrKxMaaqfuvnmm1Mo1aNUjaM3uF6uPussM7MhP+jFTIdZE+X89V//der++++fmSs/3hGHuKQhLXmQF7+pE8eAfvnLX06nDbnysc+pO20gHW0iL9po20o5YAAWUfKz+brvNAL0PfogfZE+aVdD9FXbb603EPr0EY3bz3/+8we/853vpIYPH56SOYNhNMtsTPWlX0nNnj37PRSGRzQQRWocDPRP//RPb2nmkpIjvw5hdeyxx6WkezLLqj/90z9N/ed//mckFzLosn7yk5+sZ3kg84iO/PDqAPPKuDQlg8XUXXfdtVCMHrp0IA5xSUNa8iAvaM83ddbmS+rHP/7xG+wqhsGkWXs1baFNLBlpI221Qoz8wAJMjvjOFQZWwvf0RfokfRM62YGBfksfpi/Tp+nbCYtIlKzoS0VGu23btjWqEzC91xJjm7bhP/DM2TctCwnW+ZymnPexY+iUq/FoiUDQUmymvqfK+NNjV1Zb3UYhzjJuiJTvKMRlCMqOHjfuzApaeiufCtGKpcJ0bKkwBkXJjoK9v2zpyC9z/Ifl/G033HDDnDg1ZrakvMlfGwUt3gdSth+UDRF2WeoQ3siRI01dlffdEjzUdUeu/OEvbRTM03cjbefMI/mxHEWBL5MZsyuWafsSLUlvV35u5zEXoD7P2dxh51EYYyBsnEKaaCz3hbFm0IZmUjuwuztL9EN537dVO4yw2vY2oyFKVW27mxGRURGJrQ6V+n/Tp6eijLA+mB71j8Dt9ttv/x0zFZZgKFQZGVl+MSoyU2JGknHwF7r0ZpbFEkE7fiatncWQl81PeqPUz372M5byFUkJQFryIC+WetTX1tvODqVDSf3bv/3bY3ScsHKUXyVtpK12dmjzBBOwASOwcrwWhqb/e3Cjr9Jn6bv0YT70afo2dKOv0+f9cyjc06LNuJYv/1XjypWPzOfmF47rWL/kB3Wc5MCBdg51YpPFlvgMKd/vloQOPc9WuGb3/ZzUUcukOL1TJg6TmcmCL1vXbGNj66RO62kaz/mzFpTlYcp3EGFHSUsqdEImP5Sy+/ZxxKrdzITYEtcyr1Wj6gwZJS4vBIp2E0FGx9WYOnz88cfGpELLSLNJI2FmbMs0C8eC/4awkRzlPZsB+q7aLsU9M0Vs1NSpjAkIMzpmBjKduE8bQDcrv6N3Wz8BARlwRKcp4pP5sv3yNNvVCZZSzZb7mdzAVzuS5kanhoZvyXzp2wU5jN+1qgUXXOgSNJ2c+9xzz9e/8MLzhhH3qiMRBsoui2mlFKfsSLhdn67UiPg3CmeWWhJclfhyf58zfdrxIWA0iIBhYNCyqEmDw4wwQ1JMHJTfTOVXjWX9u/K+QX7s8HLQmaWblvB0+Gbpu26V4CroERB1hmrtFM4V30xCCL/xxhsSwu1mJwsD5EodP5ISnoGuVW26LcyKG8NVrkzT8nkiHSttG7jX4EN+J8kuEPWEBJfxiOBu2jbQxPrPDjiimzlXivpnnwZOwiANFFLmSy1xvjA+fzW7xZqghJ7AiFWBQkamMX//93+fEqMbxStTSDtdx4aHKea3v/1t5yAuIejMsv77v/97ts77GUW2VW4zXQdflnI6+pKaOXPmbswXohTzP//zP9O/K6d9LNdYUqHcRtGNshzaQUvsdnpiw4Q7GlEES39myqYO7GZRJ+pGHVmKYCwpLEJ3HsEALMAEbMAIrMgX7FDegyWYgm0UvFyczgiw40yfpm+Dr13u0/fBGP5BJiAbOqfM76+CzLgY4X79618/tn79Bh3X+X36EK+WGShcCfj70UjpXXbZZStR5mqHwl0GGpNumAmoYy/UxxyMtUtDDhuzrML6Xfh68sKA8h27t9agIphlyZPDncqvFDs6llQcusVeBzs6TitceNFF3qWXXMIM+bSw/ILKivNOAqRSmwHv0U7p24wzQ5bAKO5pJ0tgZu2a9eG14lbtaC0Kyl/5DdOsa7ra2sgZzV1S3NNO8pMwNEtg6WvIK1J+QWUdre9Eq3GsAIRvg2a55jo6sGAjZ7B4SQOhZsyjdPtT7Y4/+7M/uzJsBRAFx7wEF0y2adOW6S+//OJMKVDNjg5XULGThScHbZ2a3adzzhkjLwMX3i6jNa6g6tu7DVFQLWAcMUO9dstwttdgl1EYAtozgV/96ikGY5Zy6nyhh2HpyMprnj6T2YX7/e+3mrOE6IDYhWN5yG8EIecW2Y3TDOU+CY0e0QVJqJTpHKXR21E/9KMIGuqUPjbULsPXQ2rzSKOrwghSPDVLnWFLEOxY8auD3YnOlZ3Md999rwNDzlWefvrpJj8tH1eqzQs0CLizsEGAdnknviqVMfncZ555duYrr7xsMOboHh4n2OFFV6lZmSddpXhqrGRBNYNrzt3iLtkX7k9VtFw2Pq+IYcyUkKk403CWF0wTOeahUdFcO0WjClfy0ZMTVufypJCSkDIfjs2wm8PSCYzVmVPytmCWTlFRgWY2P/IgPwmpTh+esURj6m/j9vQ3ZVOHXPWj7rZO//zP//xGVB5jmQlmYEceYEkZYGvzA3Owj4qpi/dHBKADV83R95EBYIxMQDYgI1g+IjPgQ2TIH1PG+xV7xkXFpJBbJl9Zkzj6gVKOZQajIAdomX5nvDjsUuVnaGv6PjfLikcUNjiE8cK1a9fWonxndkBAsZySLRW7NqNHny03MXXrxo4dc3vUYy0sD3/1q18tVfAGaTY8QLMYZjJ+gZkXy1A+hyOwlOMjYeJbvDkErB3UvRrVdbGG9xd/8ReRD+Cjb3nxxZdnrl3bPG7TpvSu9zGabdoNDmaxKO9lGR7p9iLfCh7FD5ER8qM2WUt9dh4rtMtrdrytU0i73OeolzZ7Iu0Wd4WzpOuDoL8huDpV4xOrVtW9KONBBBbLlpISXP0O9Ibq2vUzNOXWDkKThNYsfQq6+xRUtyPhHSOQtpqnSsDMR7+D4Sf+3yE44XhNt9EXSk/IrmxsF7vq7GV0eBsQTuiPgkIuwRGUphDvWBbyiRJowxdf7ItsU5YR9Csw/5DPKXZojV7mk08+NcWxC4lHCznZq9XA/LRmaZjs4Iu9z1wmEQW3YsXJTFTuFg9v1Gx2noyAJ27VTvFO6VJZ9n/88W6D744dO7yPd++ehF8wyZYFUQfgWPXWKD2f3QN2Deyy0Oxm6awZxwA4GzZjxoz96nzDYmXsIhsEwA0DSulXOpbb4MtSRron88GAUtPwZQi4JLApXcU//uM/fmCXRDbfvvpt28E5SnWSUCNVP8zAEkzB1uIA5mBvlznQJGPA63jbD8SQZ/A2sgEZgazgA758kCXIFGQLMiYkq47X/vPwjteeh7M47RjO46iOLkAwuzJW4UY0bTWbpaFmAEukIF6k9Wui66qyijyqfoqolSwLNepPwuaIIyvMslh6ozRmRwZDUs1e27Fh0hImL19I7ABjZ8fsSzMa/3ViH6GABE27lrp7tIlwez471aJBmZbkjdoRmy0BWIrhKjMuVhP9ZViJ51UUy9jGabbL0gaPCD2vWO4jdPGrJnynjZHp4vWpLB2xFyTYjTw2g3R+1dgMaudxVpiTyZyCiw6lXayZsoWZrqmyKQSdAzoRtqUhJlvm2n73Lr/88huiWGabTNx/HQhYly+aJtdidLlLW/XWChldoabZxuWLZgMb5MTtOnWWQBOHjozdj0QIMDOQvdpD0ssY1z34Y2cZak970LnYfdSSppPrnkSFHaWJONkgmbJM5inGYSGDNMtHVBhWn6qbpJApi2TwzLnS6AMEuqzpOpPEFJmdHXYF+La7AppZpXDYxhaziN2nR+3DxT8YPeIlAWNPps52ysxuFztqGGHOmTPnraiGpIerHUdiuWAO9tAAWkATqyKBVtAM2kHDI7H9xW4TMgPZgQxBlrDTCP9nyxpkDzIIWeRXn04zLnazsHXB+Ry7WewYYovBLAslLSNOxoGYjMnOu9o6i/PL2D3zR4DjOmnHei9VbNmy2fuDFJZ2N4vjOkyXOUuHAl6f85ynDH8ci/2Ug91avq9HcY/9HGoS7kAgsLt7sjaiqqtxgHjuLs6CumND8SnCikNqi0e1fPRwKMqKgw0jZl8aIIyhMbu7OIXERjH72FDHriISUAddF+q7DD0LGZBYCsqOGrE85MwY6339bmXd2vHS/QhEQDsnFdqFrZE5Ap5fjUU4AwKWxdLVmIPRLMVlPiJL9TPNAKHBotRhHAhr0V5q2VLKIP3ZZ+lbvdkB49IP+gO7nQzq3Kj+xhtbK3SJxx06OlWqlclG7aA5ZwHRqdKKLEGfiMxhac4ECYxxFIB7JlQo0v1Wyyj5McmmW+05VTPjwtXHmiefHPeSzPVJAGHoTHzIyAb+RvfCh07nQnQEwJQ1vD2qY7Hlm8BAYYkGtugRbZzopbiYhUIAekAzq3+hX1gaUQbvbBz6g5Y6xu7M0rNQ9TjS82F2hR6RD5jaYLHlGZgizM7l2OCll67T+dNvlDCi/8u//Mu417Sj9emnn0kglZhOky2wbGYQkaXjoUNcP5V2Amjfue9oCDBqW+PK7BQWb/BFuB04cHgMP7Pr5H576gvpM5JdBxEroOhY0IxLi12IjwB8T59gsLaYkgvP6Sc8Sw/4n3nIKHmYGYfMKpFWfxj31e3evVszqfQsKlvyZVeFzBhdbCdDeNlPdjz3OxwBu4PiFxOCMeMCZ4s1NHGDhR9ahXsG1rbzWL6237noRXybpnA1ObJzsnxteTsMY+Ihm5BRyCpkVok0+RuxxcKBGwdagwKdiSkbHYtAZ8LRXHt7sPV1UJ7unT8CdAbcDoM1hP1C3jYOZFm9+6dyT/NBoESjfpn0unQUeNu6v84nT5e2OwKlpQMkRwZ0CHwGBZbirOiCAkfdkFXILKPAwge4DMKmSgGZ07Uv02EEG24r6EhM7SAwWn8U9nQwK0GDCnfvciMAfggsFL/sYm2XISRLEIwg5YvK3DQt/0amU0EDF/JHwGKOgTWjOUp47LaOPbbMGz58uNnlxY2Om/HmjzU8i5BC6Y7VAn+j44IGuL1CMLEhmCuoD+yQ4FoS644D2V5ULFiwYBU2Xdi2YMuCYzduUMlVkHueDAHsiKSATGnHxXgsAG8dIu4RX97Jatz3U90lP+lgDNbqSAZ7aODs6ApPW2QGssPYMApvZAqyBRkTtbT0llaE2LJg3SXXH7uQjtmhtHSgO3iaDUgBfkuP2GZ1XDa7zDLdYW0BKfC3VCAGc5stfA7m0MI+c9+FQaCrzABrZAsyJmoJkQUXGWoZ023rRCubP7obiFqqixeIgDpMe9cBgiWkPg7rQOSSvwRbMM4OGeHlMM8GpQC//WSGsO8mW4KK6kypoJjunUPAIeAQ6CUIOMHVSwjhquEQcAhER8AJruhYuZgOAYdAL0HACa5eQghXDYeAQyA6Ah2HrKMniRYTvztcyim7jVLZa5RK0RlLyUkaSpKieg8XStrDlblKx+Hhxo0bp8vehvJyRcv5nHSyRWvXmbMWOYqbkX0SvWsibdtW6VT7bB0MbSAdSty47SOdwh65Ym6SdwFuVI6FT3ad8GSgYxB36iBqJflmv4vyG6zBDAX1qOrqu782ejTOCnP6QeIuPR0Un29pFLft2enAWncb3p2rnsK6HCd/ckI3LR+saZu23Vvl6PLmfDxuqD6l8u5xpw5YT5QNUhn55qq73/NsrGXuslK8fZuwbvGLy7PM/QPzdQysir6UT3nV1aOX6HYdysupCMfZAo4mZQxq7plMQlvS0JfkR25Gsfz0FUVw4a5CfnSWPvLII6ZT5yJK2HM6ky4xKJdR4J33339/hS5FuN0vDWDjpRXnZALNL0rkZ7LKrVAHuUOeMG/y85lPR2pqanroqaefrtmma64oL2mZal+5fD5NUYeCcW+LXMmsiKpPpS7VmCvvBLXcAZA0gDXGgWLqxvZ9+3ANfbNfXggtOdtbKk8ixlhWHckvWugzYWyMOtUhlypPL5fw0vV3Mx9/vGmmBHPeRs7CuUIGjnOFGQNFTsEcVHkJ0Zni6ylccZYH3Y3x5UjRHr/2qs941aeb2QXuqCW47lB5NZxsSRosbSVIZmbymOWXl/rYTN13MK957VpzKUvS9pE3ZcpofalkQVsx3F8VRXDhb0qzLeMCV/YZxh7GD6iwZxwB2C/L2vdksa/T4/MUv5vgEtFLZfl/J65icI1BeVjxJwkcO8BqnUOc8os1SXl0u+xDFylMvuOOO2oQEnS+7LObccvEvxNlrlmzZq4IvCEJgeX2Y4qwbsAaGbyoT5JA2r06VkSbNMvFQeQMv86k253uXLVqlbEyB2tOUCQJWExTHnkpnzuVh++s65ln1s58/vkXPC6wyIeX8D7AxbdgpRusp6i8brwU1g4GZM3s5+I7aufOD2TlPSgsie97OjX10U043qsbN9botpvJiri4a2TRdBK8yKUp8AnH7ZIEBiSwVr+EP2aKtngW7SYoGfw1CTB3IXIDFHZsSYLlJWSAjEznKo+VSfIJSpOsZkE56p1ArgBoAKMjWNcVIck6XiPpbQfEyR5nxnDxmiOU7tFxpP37201ZlikoM2rgaqpBYgq8XgA6dde375XsTNc5/sSxEE61EzLxoxYnwcqZzwEq76BhYNonRk50AYYYsgJsaL8dWfepU3CNWdQA1sycqBftp30KvhJJ70rpdNxSDJ2Iz9+UHSVY2vJNHqQlT7+06mBlP/vZzxQn7WqJMmLzktoljwKGXocOtRs+AjO/8sKeQaMMrQztqA9ndQ8eDD5jl50vwgC8aT88lOalg77thwctb8Gb9KW94s04tGVggbakJS/qr+BbHnzE+4ED0wI5Lm3JmLZ18KHKU5mJsCavoFAUwUWBhjEzMx9GCi3BzDkkCJfm8a6MzpLL8w5I2O1Xg3HtApPiVqS9PXw5QloIBGg4PORDufZZVxCoH59Mx+kQjMTnea7Ae9pQWpp2OwND6LYSUx7PSUsdugabJ4wBs/Lxi9c1XdjfKr+UAYIgXx1mtlkhX/XWCSRl+JVDfag7aZk9Uh9O4EeZrRIHYUCgY2hU9QYys9bzMNru08gvXZyhLXmElGc6GHW1dNSt2sbZIljbZ6YiWf8Rnw8dlXaBueY4np6a9oJZVvREP8EU/L785S8ZrDkQT8iFNc8RBAgH2k+76R62HbkqYdvOe9o7RF6Ioa0VELnKo270H8qiTNLyCQvEoc9RLrTl3oMB6kehtM0MeGDN7I72kUexQtEEFxUGVBoxfPhwT8p1HcY+8/aTThqyjpHEr0Ei4h55Q6xpadk2995l93pvbd9uCOQX1+8ZxAI43B7Lle7KU089tUlE3pGLUSlP+rM6HRxvfOCBB0wHZiYUNdDpaZ8uT/CuuuqqBTqMu0GEb/crj+d82EDQ9L8eHVGcWWGUOiHwv6IBQv7QObS6ZNiwYSuDsFanrgDv//qv/6JOZikWpRwbB8GAq+nv6kLWkSNGzJFr741B5ck1b822N9+c+8D995sr2uMsfeAlhJCU2Z4O2S4R1utE211B5enQdINoOxUdGi5RBg3KfYDXtinqN7Sjk0+YMMGTwn91TU3NIuiei/Y8lxqiVnRvlD7SYB0itDtVBQ8sCEnxNbRdoLN+zbnaDp8xq9RStE4edyevWbMmktDKLhDanqyD/TfecKNXVTVyjganQNq+//4H47ZufX0mS01u8Cmm0KKeRRVcFCCCGfcsulBzkXY0FmltHagU1fKgCYGipdt80sYJMDdpmAFxilwCZUVYenXYLTt37myEiZKUh/DCe4CurlqstuXcHbL1kM/5Suks6inLb7S08ZJ8kycjOMKE9ke5skt4VwkvdmNj14c06J1OGzb8dnkJof2BZ81UVvPBg6kypZlJ2jjB0lYKdjySLI6yM6j7E3ZIWEwFk7jlhdXN1od7GLTBsjwKr6n96/RphGfi0p76w6N4UND9hEskLNP3ewVUVAfEW4TXZNLGFSSkQX1y5pmjuAwX2ubciaQKtO3Agf2aeJYZXoojlAOakPNV+NwxZ9LoL5hyysygNUxokSMAscsGsyUNjOSYNURJryl3K50vLmGz86Y81TtSeVrqtIJHsQKzAJbJmo1Eqg/1jjPz6VpvGPS448p2KJ9AoUU64hA3H6ZmiaTO0dq1Hn5/gwFYgEmxArSEplHyzxdreBRehWejlKf258Vr9EH6ouodKLSoi+LsoI8Xk7ez21w8imaX0sO/NYVGv5FI2Z2kqoyeGnGKJ42SVCpiGuqN4revhMxMpc9iHXem1Vfo0tP1PCIFF8yh6XiPMXdf7kxphutzgqun+0mhyktkHF2owo+kfI5IwXUkEci1xSHgEOiOgBNc3TFxTxwCDoFejoATXL2cQK56DgGHQHcEnODqjol74hBwCPRyBJzg6uUEctVzCDgEuiPgBFd3TNwTh4BDoJcj4ARXLyeQq55DwCHQHQEnuLpj4p44BBwCvRwBJ7h6OYFc9RwCDoHuCDjB1R0T98Qh4BDo5Qg4wdXLCeSq5xBwCHRH4IgUXJyilweC6C5Qu+MS60nGs0SPlRercpEiJ3f4Rtv1idx24mbwilSzrpHySds1r8Pwd15tj1tfeZHo0fLi1i+f+L1ScOEILR8GxR2HXLV086mdD1BBaamr3HpE7rxBefX0O+ptXVAnKRuXMXK1EurSxuZN3HzczGT4os9inQ9fWwxjfO/Jx4UQdaUvxiivx6Imd3oVsYo0Hu+TL7300sylS5dW4iU0KKniVsupf8Oncjkbl8EzQOsig51cDDBPFxs0yx9Ta1B58pBZr5tbjDfSuOWRL4zBRQ533XXXQrxEyh9RTt9F8iJRqqufphOfuvIpZCA/PFfSHgmI+boirikof8WtEN5V9957b2ysyZfycPu8fv2Ls5ctW1Yjh4SBzu2greJeS5q4bSc+9IG2zz333MLly5dvkF+uQKeUwnoiWIBJ3PKCcLNtJ09oyXVeuh2nQn/n7OTymFqGt9nf/va3hmfC8u/6nrbjdZX2yM/WQtF2ddc42X/LE3ClcKrlQg7Sxm0/aeiD6kdzRdtxYbTFu6v6+BT6etyysusd9XfRBRezH65WkqfRCnn+bMRneFDAPS/x2wRAv37xb+uhvHd1KxA3spSXlzfgeC4o4Nue21/wPQ+xCLipkQfInG5xeM+H+JSnm3Y8MeR0MVRHHn5lkub993eK2Vu5dq0jLs8LERCidNKXX36ZG2SmqP1TgvLFbxl4g1c/pY3KcLa+0AdGffrpJ2teffWEGtofFCxtSWNpa/MKSmffgbXuMwTryXJaNzmMtm1tbYa2YJLPzMOWz7etrxEGouG2bdskUA7Uyl3x0iD88ChK++EV2kF68rL5ZZdhf8OD9j3x4dFXXnmFNk1V+6faeH7fCDkGiHfeeceUZ+PY/Ozfub6hD31QV/7V6r6I2jDa4tterrlN36V9tLeYoaiCC0LiERGCyde6IRYECAqWmHQqLm+IAwB5w8y6q45RuUMwhJVHGdS1pCQtqzKudX0FF36+6AikoTPgkZJRlw4VJZA3H9ziclsL7Y3TxqAySoQ1+TEqc11ZGNY2L7A29YkgQKmrrS/++fHxr1mrwS+o41JWNm1Ja9tu87P18fsmb2jLoMZVdGFlkYetK+WATSECeZr81DnBDLoz8EUVjIb24hny4De8pG/fyilOx0Uo8CZtxp8715VFaT9lGNqqPOoNP0TBGpzoe9QtKm0t1nzT5xGyxQxFEVy4spWEHgZhuLUH8BgBaBRgBgUIAhPAaNzKQsCv95AhQ32T4Vb2H/7hH/ZIp1VmyjuQvvKL8igrrDyIacoTY3BdGDc3pW8IGuyrt1G7dlWecor3gZYs3ItIfRHMtn2+lcx6aMsrLeXKrIOmM3JLThw9UVZ2uA3GZa6YUleF7efyjn2qC1dmhfs1p+7UB0ZjhD2USjNdZlbsu+TVkmGX3le8o1ka9BHCXruYNCptTXkSQDYtZZFndpuyfu/hPQKL/NszfGSxDqOt5SWwPiQ8Sgb0x6W3wSyrjMg/oRG0oj7gy5VwFmvqFxYs1lwDR925l3HI0KEs/XzbP3Dg4F3wIoEr0PbuRRC1m7LDyqPtfKAt5UFb6i2syc6XtvQx+tru3Wn1MLQ9oH4Ul5dUsEnDLE30C1TVUJkkoSiCixtYhg4dWgfolrkAMElAqOjiB10QcEZOfY0uEFit8hoAKh36GyLFL6+/ISyXTZx44gkb/dJr+bWlduxYjUQvaYn1jonSv/+AROVJR2Ouf9JlBM3k61de2DNdH7WBCxS4/o0lGKGkxOIQlrrz+/5eP1Mf5beLAaHz2/RfujmJ25PMTc72falmH0mD8vLI0y89Gwc/+clPNugC11qWPDYk4aWSkjRtwQrMbF5xvqERtFL6OrCGt/v3T3YpLOUOHXqSbuw518tFe3gQXkTYIDwItCNJgLZc6iKst+SiLX1MfW0isyxbXlLacqGs+iRlrktS37A0yTkuIOebbrpphq4p2jJ69OjZmo0MY8aVJCC0NJPaMWbMmAVimCW58rj44ouvO+GEE+fq2qZpKqs8bDTKlQ+XRmhEbRZhZ9XX1zf7xePmnNXNzeM3vfzydF1/NYm2WeHsFz/oGYJWjHnf+eeff4vKTLQLevnllzfpNptviEEWqjONSzpFZzYg3UQbtwPpxqJFEhi+VZ82bdpNuqlo3dlnnz0PrC2D+0YOeJie5Za0XXDBBbN05Va3W5xt0okTJ14tjKaPGzcuL9pmZhvrxCu3Rrn9yJaf/S0atcpH/9WaRdwhQTqZmXaSwEwIPZCuj1s+esyYRePr6nw7d0NDw32rV69uHTly5Dwp9utYuiUJXWi7YM6cOb7Z6Oak6yXYpkpH2qiyKpPSlraJt1vVH2/TtYQ5+61vJSI+LIrgomwqLCI3i7gwt+89imF1lEBox6xBVzH5zn5sejEUuzmz1IFXqDOVijESTe9E4DZukFF+vlN3W159XV2z2rbhnHPOWZBPebRNs4ecI6AtL+ybjqj6XMcgkQ/WYrj2KJ0aQfPUU0+to6ykWENbCa89YdeMiRbsHOZNW8qiM2XyC4M053ulbxPWN5977rkL1LkTXchC28Fa9dmo/HxntrYCDKDQVrrEYRqQ8yovjLa0TeUu0EZaE21LStsM1m3KL9EqwrY96LtogotCi1lxv0aFEcYvTdJnGYbzHSmT5plPOtWHDh5oHpBP/l3ThgmcrvHz/bsnaRtW1wztEy03w/L2e6/yGEgDB1O/dEmfhU0UkuZbyHTBW3yFLMnl5RBwCDgECoRAUWdcBaqjy6YACGi5UbV9+/YG2fZUFSC7XpcFF5cOHz58pWYnkS7C7XUNcBWKhYATXLHg6puRpfsbJ+vn3/3mN7/xJLz6ZiNCai2h5V111VUL2ajoTcvKkGq71wkRcIIrIXB9Kdmbb755bVNTk6edKbOblV33vnSLdXa9u56vpG20UTtZ1yper9E9ZtfZ/S4cAk5wFQ7LXpuTThLUbt68GWNAY+mP+QZb3WmzkXDDyd7YMLb4+WBWgXnB3r17PdpIW3tjfV2dCotAUQUX5wVlLlCmDpLIPIGmijnbtQRYHqXZlCc7pkRbxrYsLH2jLDXQGemox7go9coVR7ZFbTIcZUu8KNbFfuVaoUVHt6cL/OL19mcIKwxROXKF8OrJINoP09Gjmnx4jfrKsHZdFJ0cS32dBcQcInE/yvBak8rLeRDcYiiVwqR8yqLPytxjzze/+U1fw2JbTj7fRRFcsgOpefbZZxf+/Oc/rxcAiQ00aRij6o9//OMWGSDOyiXAEFhr165d+O///u9VlJc00BmwQF+yZMli2enMEZF9t6DvVPjFL34xNduaO0mZtE1GiJ4Y5fpcbUuSb1AaDSTmHNmVV17pyYh0lwT1DhgtKE1ve0enUkeufO211ypYHmJc2lOBTn333Xc/KOPjzIw1eclYxYuVltys4JeLBGSFPC7MFT9O44wmg07SAK/JILxNxsM5DX5pm86BzvuP//iPvPsR5S1YsGD1hRdeeGsxzCuKIrh0oLrx8cefqH/ssd8awYNAAHT7CQKfuPZDPADQCfwqLW0W6k/fmdez69bNl8eAKnuwOml51E+7U5ytnCYLeoznFlGH7PDEE09M/Nd//dep6jR4YDB15T1powhN2kP9CMTXiQCOdCyUsN9SDAKbgrL+o0ys6+tkRPujH/1ofNarPvfzpz/96dNyJ1OHpbbFtJiNYEBW516ojye9oeFNyktCe9KcfPLJ8PZU8dRyTkB0rbuE42RZzk+jPOsKiHT20zV+9t+2D9m+AN1V53LNtO+QQFziN/NS+xbqxEslh7gtL9uy+A4KfuXt27e/XgNjo9LdFJQ2ybuiCK73P/hgXFvbbqMI5hgNU3mAYGnCiB8UOFzN+Sg6OCEDOASu9EsnIpRqBKz+/PPPO5YOgIgOh/L4DgocwOX8F3Xk0CwE+uijj2GUYX7pMCfAbQzHPTiLST2poy3PEtwvLc8GDBhoyiMdefB56623KuWCpVqvA08I5MozyXOm8knS9aY0Pd0GaAStoBnLVI5sQe8D5mB/8HEc6E0a+MzyDC6V4KVcJirwILwITw4cOEi8U2r4jPI43B0UKMeWR3pUA7iewZOFAuqUbqsJ+hgCmT5LHQm0j8PtHLYOCgwelEc6+gLHk5AByIKgdEnfFUVwHZTTNASUlcIQWJI3rYvIzDZyVlgg03ARzcwMyIMZAsDnCKX7MwKKuATK4qMK5EiS9VjlIeDS5aWJw0l8EcxXn6C6lVIfmIHyaCezNLwOBJWHNwSqQ1m0BXcwBPLhWa7ysmpa0J/aTfRtX0ELKXJmPd0GaAStoBmBTgqfoWej0/IYjwo5gyIgrOA10pIPvARP+aWhPHjRBoQD3ikoK4jXbHwqhLCiTHhV+QVOHOBL6kN/JT5LcHgbIRhansqi31IekwjbN5AFHfUp4I+iCC5bPwhz8OAhDy8IZ5xxhgEdUIIC4LGef/XVV4OElW8W6fIOmtP0Z555phEmhsi+sdMPARmvmpSH64+wAMORJ0wAoRhZOAU/atSZYuL0DMwvD9Idc0w/LS93GP9dLS0tJg/i8q6nA52ip8ssdHmHow2WVpb+0B4PFyefXCk58UdfZV3bSvzPPvtcvrRe9+Qt1Mxq7KzI5tk1Tfbf8CbxR0i1QJnW3U12nOzfCFh4m51W68mCcqKURT7Ul75KP0Lvi3AOCsxCMUnBF9wnn3xqhHJQ/HzfFVVwUbn9+/cZgSXl84qzzjprkfQ5gTY2Arz69a1bJ0vx3ci0No7iFcGFIIG4f/VXf3Xr8OHD0RsE7thp+l+HQlIO2mrNdFjT5KjBCkp5d/C++93vXin3JJxfC1yCSUDOXbVqVeOmTZsCR7+odXDxDg8CzLThNW1weBMmTFggjxpzQmpSJl6rfeCBBx7Diym8EyfAm8y4VNYGNqrEa80h6Sulg62TYn8pwoQZUJzAzAt3Ot+5/voFZ55xxn0arAMPTOOZREJyuoTytWxcxC0vTt2IW3TBheRmzSxFZPMVV1yxOkIFN2iXsFJANZI2TrCChNEhs9UcCHYm76bFixdPEdC1ccsjPWVqOt3up1z1q7vatlrLStO2uMzrl597dngQgHbwCyoC/MFJ2R04YKmWvG+aMWNGu9LGnu1SFsJAs58tEXmtRfrfdlY7rAzMci8GVJTHyuKrlZXsDEY5UL5a9wDUqq9fS9q45cWomona82uUCDVUwzt8bUeI3i1KZgkXaW0t4pZplleWjxBReaXk060i7oFDIAsBeAReyXoU6yc8Cq9G5TXNmoxX4FiFZEXOCOfE9c3KquA/e6XgKngrwzPkmIgLDoG+gIDjVVHJCa6+wKqujg4Bh0AnBJzg6gSH+8Mh4BDoCwg4wdUXqOTq6BBwCHRCwAmuTnC4PxwCDoG+gIATXH2BSq6ODgGHQCcEnODqBIf7wyHgEOgLCDjB1Reo5OroEHAIdELACa5OcLg/HAIOgb6AgBNcfYFKro4OAYdAJwSc4OoEh/vDIeAQ6AsIOMHVF6jk6ugQcAh0QuCIFFycTNcp9bDT+p2AyOePjI+jYBeR+RTg0h4pCLRH9Yd1pDS4WO3oEcGFmwudVC/XqfZIJ811Ar48H28NMcEqx7dSPuXhjUIh0u1CKksn9uO564nZHhe9BxGAltA0YpHlGV6JGL1zNHgUXlWIxGsqq5y+lzRQHn0xSnr6Nn08n/KilGPjFN0fFwXh1VQOxmbjt0gNxAFaTgEmT4o1cnw2DidtSQOeJt999916lYVf7dYc5bVzYYC8rdbi2jYfwOUgDl/eE1Ue/sbactTbzMjkQLB2z57P8xKUOfJ3j3sYATo2tBRv14r2KzLF5+LtcvFIPbySNMCj8Co8qzxWqkzK8isPXqt8++23a/FMmjTQB+WMcJyuR9sib6hB9yG0y2VzHX2cvt4ToeiCCw+muGLWTSaeOu0qHK9BcD5+YY+A3iXXtvjlxpFZnMA0HC+Rra1vef/7v/87T/655+HE0E8o4ZStsbHRk0dK40qZkSxJeYMGDaZdnpyoLevwz+1Tacrjw5VmupRAZQ3wrZdPUveoFyKAOgIa4hpZHXymLr2YGcTXzLTgaeLDM3GXjPAmPKqbeODXR+Hd++67z7cfkTceTBGSeCPN1QeCYKU86qsbhqY9/8IL08pyuFy3fI1A3bFjh+nr9Pl8ZpZB9bLvekRw7dq1y/v1r3/tC7KtSPY3wONTGwAyU+Ps191+SySYZ4CI91PdxGIYpFvEHA8QdpTHd9QAk1LPwYNLvY0bX/Wef/75qElNuyjv0KH0DUTU24W+gYClFR170KCBov1Gb/369ZErj9AaPHiQ6di5Bm+/zOBN+oKuK4vUJ2weeEClTzDziloe8eh7CL6HH3448gALNpRH2nxmerbuQd/Re2pQLj7vmOUgdfkwOoVdktE1C0DQ+rqDSEEjVP/+aVVddnkAGDVQFsQ6qDr3U32jEJgrotIElv9rXW8WtzzwIT1lw5Rqn1PuRyXYYYoHjaCV5RdoiACLM+DBx/ApV+GRT1gwfEk/Ulkl4hdmTwiGqIG+Z/tFGF/bPka/Iy5pwy7J6FoP2z7K9FvpdI2f9O+iKOdPO+20FdzQbDszDYC4cT7phqdMmnPOOcerqanx9R+Pr+9Ro0at5FZgQLYCIU5ZgM1o1l/f3GhSVXW68VnvB6reb7j44ou9ysqTOxiY9HHLgzmoL5eCVldXbxgyZEgUv95+VXLPeggBaAStoBm0g4ZxaU9V29vTV47BQ/ASPOXXBO5NgBfhSXgTHo1bXlrwIWAHeKeccgq81qI+0+1ORcqnj9HX4GVd/WYEXhy+TqdLbwbQ95EByAK/tuX7rCgzLjV+jq78qtu0eXPtRx9+aAjMSBE1ADaKwQED+nu6zcT78z//8y26aOP6OXPm+GYh4t8iZfxmXWZZxhVJpI8zKiHsKA/928iRI73x4+tua2houM+vsPr6+mZNn2+65557lnKHXJKAUKY8Maan22G8Sy+99GYxU0uSvFyankMAGj377LM3S0+1Htqj04HPmJlEDQgfBB79YcyYMd73vve9m+Apv/Tw4LJly6pff33LbHgGPRLpEF5RA7ouySHD22PHjoXXbsqVlj6mdw8uXbq0mmUiZVJelJmhzRO+Zhb6lRNP9C644IINyAL7rpDfRRFcInCbdjwmSII3sEUqAEpF3FhLIdJAIKVr027kylyjBGDoXavKO+uSSy6pt1uyccsTQ5VpxNgjBXtL2C0q11xzzd2rm5tbbrzxxpokxJBg1UWfB0u1fN514oknbox4i0qSolyaAiMArSS8zps0aVKN9DgV8Jk6dmTetrQn3QlDh26or6vzFVq22jfccMMcbWw1S1FeZXnUvovyDZ8RD97WqqRZfcV35UKciy66aKP60XgJ1AalM6YNcfsR5ZFGAr1NAzP9Nvk2KpXKEYoiuCgrU2HfWUuOuuT1GOGlDO7OK5MYiTMMF8h0MbJzUfsQApmBxnd5V4xmhA2khSxT/YhlZI/1o6R1jz7nTFqCS+cQcAg4BAqMgBNcBQbUZecQcAgUHwEnuIqPsSvBIeAQKDACTnAVGFCXnUPAIVB8BGIJLu1MsIPSqVba+Yu8o9IpofvjsCIgo90e855RrIYeCW0oFja9Od+uMgOZgmyJU+fAXcXMIU6Tn2xPap588slaCul3TL8O48vdu3dXK16FItERYhUep6JHU1zZo9VzvhN7NG0tG7w///xzT7Zx47JpEhUT2Z3VQDc+5Mm38q/R4dlxmcOzfY1upTJFqGlqajLtAgfbPtnx1STBaO3atePAGN4Gc3CCBjpbymH9oAPGUcng4qUPhJf98pe/rLZ8aGXJhx9+WCszk1rZgHVgrR3OnHzZefqUgfbxxx+vf+qppzCwHIYBGwHDsrd1QPgFncmTrYYhLswiWy1v9OjRmZTuKx8EwBPbNQkoc95SAsyjM9GROBkwfPhwYyBrTweElWU782uvveZJSJljVzAMJ/ix2K6qqop9pCOszJ56TxtaWlo8CRzTBtrK+bjx48d7Z599thE8tDUsWMw5+L59+3ZzCB7+5izpiBEjsPz2hg4d2nEiIyw/9z4cAZwScMYT+lhZ8vXzz/dOFY9bQ3UMe4877rhW2WbeJMNYvK50Ct0El06f1zy+atWDjzz8cDVCi05C4Gzevn17zYlxKy15jrW5CuCnCwVAgI60X5bVe9UJEVoQlmec9bSfKB3SVoW0WFxz0B2LZtJivS3PGTqSxcHy6FbfNs/e8A0/4lKGkxJaZhiMsEivqKgwPBkXI4Se/ZCWwQLhNUi4D8jg1hvafSTUgVMH8CQBrOFRPKsMHDiogx8ZwBFe37rmmi1XTJhwPcax2W3vtlTUKD/plZdeYvlnGJ1MrfCCQboeAXj//Z1mlMrO1P3OD4ESdZRSYQ3xwB/i4mLko48+1nGR9Aw4TgmcUxs4cIDJh3TQcadcBx1ofy9ONr0uLjgN0pEUAhjRrqT8CEYIcQQWASGIUGyXkD+g3y4UDgHLjzZHaMfxKQZUAnzPM2igGW911YgRk/Q4WHCRkER0GCSefmokSutxEWA2c+IRoi5b0rHd/1EQANN2zXahgQ3QxH7ss6jfhw7t7SbwjgS6GX7sIlSStguM9u9P6wEtrhZvvl0oHAJh/DhgAOcjWeXl9kzcbcaVXT2WKUzhRo4cIW8IlWYKnv3e/XYIOAQcAoVCwDojRMfLCiMo5BRcjDIoQFEKXyRF7rgLLlgkNxVFcVERVEH3ziHgEDg6EJC31mvXPffc9FXylozwCgo5BZdNhE6rUv6HRowatTzsJLtN474dAg4Bh0BcBORxpV3Ca7rdWQxKH2qAisKT3awvDRqU0x1GUAHunUPAIeAQiIIAMgZZg8wJC6GCiyUjCk+F6L6Qw0p17x0CDgGHQHcEyqJurgSKNrYl9+zZ423dutU7/vjj5z366KNN0vTHu3qne+XcE4eAQ8Ah0AkBzbLadeHMRGQNMgfZk5kwdYpn/wgUXBgsYgSJ5bW0/JPlRnlyUGY2U/ftEHAIOATiIICgwl20rl4zMgfZw2mdXCGn4LJ2XAgu3RnnbdiwwdgR5crIPXcIOAQcAvkggMzBABjlPDak9rihX57dBJck3R6UY9YcgsysIZgzxPOD0D1zCDgECoEAssbquJA1fJBFyKSu+XcTXLqCqVmHS9t05Vc5JvduadgVMve3Q8AhUGwEWDqyXEQWIZO6lvfHMyVZb3Rbbp1c2CyVy5qqvXtzrzOzkrifDgGHgEOgYAhwS7g2BFu4Ts3v+jZfwUXp8hJRLeVYhY79uF3EgpHDZeQQcAhEQUC6rnbpunbJK4Sv/ej/Bym/OWI10ifoAAAAAElFTkSuQmCC;" vertex="1" parent="1">
          <mxGeometry x="56" y="252" width="302" height="140" as="geometry" />
        </mxCell>
      </root>
    </mxGraphModel>
  </diagram>
</mxfile>
